<svg version="1" xmlns="http://www.w3.org/2000/svg" width="400" height="400" viewBox="0 0 300.000000 300.000000"><path d="M0 150v150h300V0H0v150zm295-.5V295H6V4h289v145.5z"/><path d="M60.8 84.7c-3.2.2-5.8.8-5.8 1.2 0 .5-2.2 1.1-5 1.5-2.7.4-5 1.1-5 1.6 0 .4-1.3 1.1-3 1.5-1.6.4-3 1-3 1.5s-.9 1.2-2.1 1.5c-2.6.9-9.9 8.3-9.9 10.1 0 .8-.4 1.4-.9 1.4s-1.2 1.3-1.6 3c-.4 1.6-1.1 3-1.6 3s-.9 1.6-.9 3.5.5 3.5 1 3.5c.6 0 1 .6 1 1.4 0 2 4.7 6.6 6.8 6.6 1.5 0 2.1-.9 2.6-4 .3-2.2 1-4 1.5-4s1.2-1.3 1.6-2.9c.3-1.6 1.3-3.2 2.1-3.5.8-.3 1.4-1 1.4-1.6 0-1.4 9.4-11 10.8-11 .6 0 1.2-.4 1.4-.9.2-.5 1.5-1.2 2.9-1.6 2.4-.6 2.5-.4 2.1 2.4-.2 1.7-.8 3.1-1.3 3.1-.4 0-1.1 2-1.5 4.5-.3 2.5-1 4.5-1.5 4.5-.4 0-1.1 2-1.5 4.5-.3 2.5-1 4.5-1.5 4.5-.4 0-1.1 1.6-1.5 3.5-.3 1.9-1 3.5-1.4 3.5-.4 0-1 1.8-1.4 4-.3 2.2-1 4-1.6 4-.5 0-1.2 2-1.6 4.5-.3 2.5-1 4.5-1.5 4.5-.4 0-1.1 1.6-1.5 3.5-.3 1.9-1 3.5-1.4 3.5-.4 0-1 1.8-1.4 4-.3 2.2-1 4-1.5 4s-1.2 1.6-1.5 3.5c-.4 1.9-1.1 3.5-1.5 3.5-.5 0-1.1 1.8-1.5 4-.3 2.2-1 4-1.5 4s-1.2 1.5-1.5 3.4c-.4 1.9-1.1 3.6-1.7 3.8-.6.2-1.1 2.4-1.2 4.8-.1 4.2.2 4.9 5 9.7 2.9 2.8 6.3 5.5 7.5 5.9 1.3.3 2.6 1.1 2.9 1.6.3.5 4.2 1.2 8.5 1.5 4.3.3 8.2 1.1 8.6 1.7.6.8.8.8.8 0 0-.7 3.4-1.3 8.7-1.7 4.8-.4 8.9-1.1 9.1-1.7.2-.5 2.1-1.3 4.2-1.6 2.1-.4 4.1-1.3 4.4-2 .3-.8 1.2-1.4 2.1-1.4.8 0 1.5-.4 1.5-1 0-.5 1.1-1.2 2.4-1.6 1.4-.3 2.7-1.2 3-2 .3-.8 1-1.4 1.6-1.4 1.3 0 11-9.3 11-10.5 0-.4 1.1-1.8 2.4-3 1.3-1.2 2.7-3.2 3.1-4.3.3-1.2 1-2.2 1.5-2.2s1.1-1.4 1.5-3c.4-1.7 1-3 1.5-3s1.1-1.4 1.5-3c.4-1.7 1-3 1.5-3 .4 0 1.1-1.9 1.5-4.3.4-2.3 1.3-4.5 1.9-4.9 1.7-1.1 1.5-33-.1-33.5-.7-.3-1.3-1.6-1.3-2.9 0-1.4-.6-2.7-1.4-3-.8-.3-1.7-1.7-2.1-3.1-.6-2.7-10.8-13.5-13.7-14.6-1-.3-1.8-1-1.8-1.5s-1.8-1.2-3.9-1.6c-2.2-.3-4.1-1.1-4.3-1.6-.2-.6-2.1-1.3-4.3-1.7-2.2-.3-4.2-.9-4.5-1.3-.6-.9-16.8-1.7-24.2-1.3zM84 91.9c0 .4 2.1 1.1 4.6 1.4 2.6.2 4.9.9 5.3 1.5.3.5 1.7 1.3 3 1.7 2.8.9 9.1 6.6 9.1 8.4 0 .6.4 1.1.9 1.1s1.3 1 1.7 2.2c.4 1.3 1.2 2.6 1.8 3 1.5 1 1.4 29.7-.1 30.6-.6.4-1.4 2.6-1.8 4.9-.4 2.4-1.1 4.3-1.5 4.3-.5 0-1.1 1.3-1.5 3-.4 1.6-1 3-1.5 3s-1.1 1.3-1.5 3c-.4 1.6-1.1 3-1.6 3s-.9.7-.9 1.5-.9 2.3-2 3.2c-1.1 1-2 2.1-2 2.6 0 1.3-9.6 10.7-10.9 10.7-.6 0-1.1.4-1.1 1 0 .5-1.1 1.2-2.4 1.6-1.4.3-2.7 1.2-3 2-.3.8-1.2 1.4-2.1 1.4-.8 0-1.5.4-1.5 1 0 .5-1.7 1.2-3.7 1.6-2.1.4-4.1 1.1-4.4 1.6-.8 1.2-18.5 2.3-23.3 1.4-2.2-.4-3.6-1.3-3.6-2.1s.4-1.5.9-1.5 1.2-2.5 1.6-5.5c.3-3 1-5.5 1.5-5.5s1.2-2 1.6-4.5c.3-2.5 1-4.5 1.5-4.5.4 0 1.1-1.6 1.5-3.5.3-1.9 1-3.5 1.4-3.5.5 0 1.1-1.4 1.5-3 .4-1.7 1-3 1.5-3 .4 0 1-1.8 1.4-4 .3-2.2 1-4 1.5-4s1.2-1.4 1.6-3c.4-1.7 1.1-3 1.5-3 .5 0 1.2-1.6 1.6-3.5.3-1.9 1-3.5 1.4-3.5.5 0 1.1-1.4 1.5-3 .4-1.7 1-3 1.5-3s1.1-1.4 1.5-3c.4-1.7 1-3 1.5-3s1.1-1.4 1.5-3c.4-1.7 1-3 1.5-3s1.1-1.4 1.5-3c.4-1.7 1.1-3 1.6-3s1.1-1.1 1.5-2.5c.3-1.4 1-2.5 1.5-2.5 1.5 0 1-2.8-.8-5-1-1.1-2.3-2-3-2-.7 0-1.3-.4-1.3-1 0-.5-1.8-1.3-3.9-1.6-4.9-.8-6.5-3.4-2.1-3.4 1.7 0 3-.5 3-1 0-.6 3.2-1 7.5-1 4.1 0 7.5.4 7.5.9zM150.5 101.2c-.4 9-1.1 16.5-1.5 16.8-.5.3-1.2 7.8-1.6 16.8-.4 8.9-1.1 16.2-1.5 16.2-.5 0-.9 9.2-.9 20.5 0 13 .4 20.5 1 20.5s1 2 1 4.5c0 3.4.4 4.7 1.8 5.2.9.4 2 1.1 2.3 1.6.4.5 4.5 1.1 9.3 1.4 7.3.5 8.6.3 8.6-1 0-.8.7-1.7 1.5-2.1.8-.3 1.5-1.2 1.5-2.1 0-.8.4-1.5.9-1.5s1.2-1.3 1.6-3c.4-1.7 1.1-3 1.6-3s1.2-1.8 1.5-4c.4-2.2 1-4 1.4-4 .5 0 1.1-1.3 1.5-3 .4-1.7 1-3 1.5-3 .4 0 1.1-1.6 1.4-3.5.4-1.9 1.1-3.5 1.6-3.5.6 0 1.3-1.8 1.6-4 .4-2.2 1-4 1.5-4 .4 0 1.1-1.6 1.5-3.5.3-1.9 1-3.5 1.4-3.5.4 0 1-1.8 1.4-4 .3-2.2 1-4 1.6-4 .5 0 1.2-2 1.6-4.5.3-2.5 1-4.5 1.4-4.5.4 0 1.1-1.6 1.4-3.5.4-1.9 1.1-3.5 1.5-3.5.5 0 1.2-2 1.5-4.5.4-2.5 1.1-4.5 1.7-4.5 1.2 0 1.2 11.7 0 12.2-1.3.4-2.5 44.3-1.6 56.1.5 7.1 1.1 9.7 2 9.7.8 0 2.1.8 3 1.7 1.3 1.2 4 1.8 10 2.1l8.3.4.7-3.1c.4-1.7 1-3.1 1.5-3.1.4 0 1.1-1.6 1.4-3.5.4-1.9 1.1-3.5 1.5-3.5.5 0 1.1-1.8 1.5-4 .3-2.2 1-4 1.6-4 .5 0 1.2-1.6 1.6-3.5.3-1.9 1-3.5 1.4-3.5.5 0 1.1-1.4 1.5-3 .4-1.7 1-3 1.5-3s1.1-1.3 1.5-3c.4-1.7 1-3 1.5-3 .4 0 1-1.8 1.4-4 .3-2.2 1-4 1.5-4s1.2-1.4 1.6-3c.4-1.7 1-3 1.5-3s1.1-1.4 1.5-3c.4-1.7 1-3 1.5-3s1.1-1.4 1.5-3c.4-1.7 1-3 1.5-3s1.1-1.3 1.5-2.9c.3-1.6 1.3-3.2 2.1-3.5.8-.3 1.4-1.2 1.4-2.1 0-.8.4-1.5.9-1.5s1.2-1.4 1.6-3c.4-1.7 1-3 1.5-3 .4 0 1.1-1.1 1.4-2.5.4-1.4 1-2.5 1.5-2.5s1.2-1.3 1.6-2.9c.3-1.6 1.3-3.2 2.1-3.5.8-.3 1.4-1.2 1.4-2.1 0-.8.4-1.5.9-1.5s1.3-1 1.6-2.1c.4-1.2 2.7-4.1 5.2-6.4 5-4.8 5.2-8 .7-9.1-1.3-.3-2.4-1-2.4-1.4 0-1.1-4.9-2.2-7-1.5-1 .3-2.1 1.7-2.4 3-.4 1.4-1 2.5-1.5 2.5s-1.2 1.3-1.6 2.9c-.3 1.6-1.3 3.2-2.1 3.5-.8.3-1.4 1.2-1.4 2.1 0 .8-.4 1.5-.9 1.5s-1.2 1.3-1.6 3c-.4 1.6-1 3-1.5 3s-1.1 1.3-1.5 3c-.4 1.6-1 3-1.5 3s-1.1 1.3-1.5 3c-.4 1.6-1 3-1.5 3s-1.1 1.3-1.5 3c-.4 1.6-1 3-1.5 3s-1.1 1.3-1.5 3c-.4 1.6-1 3-1.5 3s-1.1 1.3-1.5 3c-.4 1.7-1.1 3-1.6 3s-1.2 1.8-1.5 4c-.4 2.2-1 4-1.4 4-.5 0-1.1 1.3-1.5 3-.4 1.6-1 3-1.5 3-.4 0-1.1 1.6-1.4 3.5-.4 1.9-1.1 3.5-1.6 3.5-.4 0-1.1 1.3-1.5 3-.4 1.6-1 3-1.5 3-.4 0-1 1.8-1.4 4-.3 2.2-1 4-1.5 4s-1.2 1.6-1.5 3.5c-.4 1.9-1.1 3.5-1.5 3.5-.5 0-1.1 1.8-1.5 4-.7 4.4-2.1 5.2-3.1 1.8-.9-2.7.5-44.8 1.5-44.8.4 0 1-5.5 1.4-12.2.4-6.7 1.1-12.5 1.5-12.8.5-.3 1.2-3.5 1.5-7.3.4-3.7 1.1-6.7 1.5-6.7 1.1 0 2.2-8.5 1.5-10.4-.3-.8-1.9-1.8-3.5-2.1-1.6-.4-2.9-1.1-2.9-1.6s-1.8-1.2-4-1.5c-2.2-.4-4-1-4-1.5s-1.6-.9-3.5-.9c-3.1 0-3.5.3-3.5 2.5 0 1.4-.4 2.5-.9 2.5-.6 0-1.3 2-1.7 4.5-.3 2.5-1 4.5-1.5 4.5-.4 0-1.1 2-1.5 4.5-.3 2.5-1 4.5-1.5 4.5-.4 0-1.1 2-1.5 4.5-.3 2.5-1 4.5-1.5 4.5-.4 0-1.1 2-1.5 4.5-.3 2.5-1 4.5-1.5 4.5-.4 0-1.1 1.6-1.5 3.5-.3 1.9-1 3.5-1.4 3.5-.4 0-1 1.8-1.4 4-.3 2.2-1 4-1.5 4s-1.2 1.6-1.5 3.5c-.4 1.9-1.1 3.5-1.5 3.5-.5 0-1.1 1.8-1.5 4-.3 2.2-1 4-1.5 4s-1.2 1.6-1.5 3.5c-.4 1.9-1.1 3.5-1.5 3.5-.5 0-1.1 1.8-1.5 4-.3 2.2-1 4-1.5 4s-1.2 1.4-1.6 3c-.4 1.7-1 3-1.5 3s-1.1 1.3-1.5 3c-.4 1.6-1 3-1.5 3s-1.1 1.3-1.5 3c-.4 1.6-1 3-1.5 3s-1.1.8-1.3 1.7c-.4 1.7-.5 1.7-.6 0 0-.9-.5-1.7-1.1-1.7-.6 0-1-5.5-1-14.5 0-8 .4-14.5.9-14.5.4 0 1.1-7.5 1.5-16.7.4-9.2 1.1-17 1.6-17.3.4-.3 1.1-4.4 1.5-9.3.4-4.8 1.1-8.7 1.5-8.7.4 0 1.1-2.5 1.5-5.5.3-3 1.1-5.5 1.6-5.5 1.4 0 1.1-3-.5-4.5-.7-.8-2.5-1.7-4-2.1-1.4-.3-2.6-1-2.6-1.5 0-.4-1.6-1.1-3.5-1.5-1.9-.3-3.5-1-3.5-1.5s-1.7-.9-3.9-.9h-3.8l-.8 16.2z"/></svg>