<svg version="1" xmlns="http://www.w3.org/2000/svg" width="1365.333" height="1365.333" viewBox="0 0 1024.000000 1024.000000"><path d="M0 512v512h1024V0H0v512zm276.6-194c22 1.8 37.2 5 54.9 11.5 55.3 20.3 90.1 60.2 100.2 114.8 2 11.2 2.3 41.5.5 55.7-8.1 61.9-39.2 119.6-85.2 158.2-44.4 37.2-95.3 54.2-146.2 48.7-39.4-4.2-69.2-22.3-86.2-52.2l-4.4-7.8 5.5-12.7c25.6-59.3 107.3-278.5 104.8-281.1-.3-.2-4.3 1.4-8.9 3.7-20.7 10.3-40.1 27.9-53.4 48.7-6.2 9.5-14.4 27-18.3 38.5-1.7 5.2-3.3 9.7-3.4 9.8-.2.2-3.1-1.1-6.4-2.8-12.2-6.5-23.9-22.5-24.8-33.9-.5-5.9 4.6-20.8 10.8-31.6 26.7-46.8 89.4-73.1 160.5-67.5zm257 2.1c17.4 4.5 44.9 16.1 55.2 23.1 5.2 3.6 5.2 3.3-.1 18.4-14.1 39.9-25.1 120.4-28.8 208.9-1.1 26.9-.6 78.4.9 90l.7 5 3.8-6c5.5-8.6 23.3-44.2 31.7-63.5 34.6-78.8 77.6-194.9 96.1-259.4l5.4-18.8 5.1.6c19.4 2.3 67.4 23 67.4 29.1 0 .9-1.6 6.1-3.5 11.6-14.6 42.1-25.9 122.4-29.5 209.9-1.5 37.6-1 89 .9 89 .4 0 5.8-12.7 12-28.3 14-34.9 37.4-89.6 51.5-120.4 35.2-77.2 78-159.1 94.4-180.6 3.5-4.5 3.9-4.8 7.2-4.2 10.2 1.9 22 7.9 32.3 16.2 3.7 3.1 7 6 7.3 6.5.3.5-3.4 5-8.3 10.1-27.4 28.4-63.4 88.4-109.9 183.2-24.4 49.8-42.8 91.2-60 135-5.2 13.2-9.8 24.7-10.3 25.5-.4.8-3.7 2.6-7.2 3.9-8.5 3.2-21 3.3-32.4.2-10.7-2.8-25.1-10-29.9-14.9-3.6-3.8-3.9-4.5-5.1-14.2-2.4-18.2-3.8-56.1-3.1-83.5.9-35.6 2.1-55.2 6.7-110.4 2.1-26.1 3.8-47.6 3.5-47.8-.2-.2-3.3 8.3-6.9 18.9-27.6 81.2-61.7 166.5-86.3 215.8-16.5 33.1-16.7 33.3-24.6 35.9-9.6 3.1-15.3 3.5-24.9 1.7-21.5-4-39.7-14.1-41.3-22.9-.9-5.5-2.6-26.5-3.6-46.7-2.6-50.8-.5-90.8 10.5-202 2.4-24.5 4.9-50.1 5.5-57 1.4-16.6 4-53.8 4-57.3 0-2.3.4-2.7 2.8-2.7 1.6 0 6.4.9 10.8 2.1z"/><path d="M264.3 342c-9.6 1-27 4.6-27.7 5.9-.3.4 3.2 2.2 7.7 4 4.5 1.9 12 5.3 16.7 7.8 9.9 5.2 27 16.3 27 17.6 0 .4-1.3 2.8-2.9 5.1-5 7.3-19.5 34.7-36.6 69.1-46.2 93.1-83.9 188-82.3 207.1.3 3.8.4 3.9 5.8 5.3 8.8 2.2 47 2.1 59-.2 48.9-9.2 97-44 126.3-91.5 18-29 30.2-63.6 34.3-97.2 2.2-18.3 1.5-47.9-1.5-59.3-8.1-30.7-25.9-51.6-54.3-63.9-19.2-8.3-47.1-12.1-71.5-9.8z"/></svg>